<?xml version="1.0" standalone="no"?>
<!DOCTYPE svg PUBLIC "-//W3C//DTD SVG 20010904//EN"
 "http://www.w3.org/TR/2001/REC-SVG-20010904/DTD/svg10.dtd">
<svg version="1.0" xmlns="http://www.w3.org/2000/svg"
 width="1280.000000pt" height="1280.000000pt" viewBox="0 0 1280.000000 1280.000000"
 preserveAspectRatio="xMidYMid meet">
<g transform="translate(0.000000,1280.000000) scale(0.100000,-0.100000)"
fill="#ffffff" stroke="none">
<path d="M4412 8690 c-132 -35 -255 -117 -321 -214 -36 -52 -77 -157 -85 -218
-4 -27 -5 -48 -3 -48 3 0 23 6 45 14 22 8 103 20 179 26 76 6 158 13 183 17
25 3 42 3 39 -1 -6 -6 -279 -50 -386 -61 -57 -6 -63 -9 -63 -30 0 -21 6 -24
43 -27 l42 -4 -42 -8 c-26 -5 -43 -14 -43 -22 0 -18 13 -18 155 7 111 19 457
39 445 26 -7 -8 -217 -58 -412 -98 -124 -25 -158 -36 -158 -48 0 -9 18 -47 39
-86 34 -62 41 -70 64 -67 15 1 27 -2 27 -8 0 -6 26 -10 63 -11 72 -1 67 -5
-18 -14 l-60 -7 44 -39 c92 -82 241 -131 397 -131 71 1 112 7 194 32 57 17
122 41 144 54 56 33 126 95 126 111 0 7 6 15 13 18 8 3 24 22 36 42 l21 37
-37 -6 c-21 -3 -60 -8 -88 -10 -45 -5 -46 -4 -15 4 19 5 61 14 93 20 31 6 57
16 57 21 0 5 0 12 0 16 0 11 -63 5 -289 -28 -112 -16 -206 -27 -209 -24 -3 3
-2 5 3 5 37 0 503 85 512 94 7 6 15 30 19 54 7 42 7 42 -22 37 -16 -2 -94 -9
-174 -15 -80 -6 -172 -12 -205 -15 -52 -4 -44 0 70 30 72 19 166 39 210 45
124 17 125 17 125 45 0 14 -2 25 -4 25 -2 0 -48 -12 -100 -26 -53 -14 -111
-24 -129 -22 -24 2 -9 9 63 26 184 45 170 38 163 75 -8 45 -22 69 -37 64 -7
-3 -44 -8 -82 -11 l-69 -5 78 17 c81 18 83 20 68 62 -22 61 -27 63 -130 45
-121 -21 -129 -13 -11 10 49 10 90 20 90 24 0 3 -7 14 -14 24 -13 16 -25 18
-127 11 -128 -8 -142 5 -27 25 111 20 112 22 22 75 -111 65 -157 77 -309 82
-107 3 -143 1 -203 -16z m421 -87 c-7 -2 -19 -2 -25 0 -7 3 -2 5 12 5 14 0 19
-2 13 -5z m-56 -9 c-3 -3 -12 -4 -19 -1 -8 3 -5 6 6 6 11 1 17 -2 13 -5z
m-317 -130 c-48 -16 -300 -57 -306 -51 -14 13 240 65 321 65 26 0 24 -2 -15
-14z m267 -130 c-3 -3 -12 -4 -19 -1 -8 3 -5 6 6 6 11 1 17 -2 13 -5z m-48 -9
c-8 -8 -249 -36 -282 -33 -18 2 24 10 93 19 133 17 196 22 189 14z m288 -1
c-3 -3 -12 -4 -19 -1 -8 3 -5 6 6 6 11 1 17 -2 13 -5z m-122 -66 c-371 -60
-578 -88 -638 -87 -71 1 -71 1 -27 11 61 12 657 86 695 86 17 0 3 -5 -30 -10z
m5 -33 c0 -2 -30 -13 -67 -24 -70 -20 -244 -39 -230 -25 6 6 184 38 290 53 4
1 7 -1 7 -4z m-95 -91 c-33 -7 -69 -13 -80 -13 -34 1 68 27 105 27 28 0 23 -3
-25 -14z m200 -63 c-16 -14 -273 -59 -523 -92 -230 -29 -320 -34 -192 -10 36
7 119 25 185 41 66 16 179 34 250 40 128 11 276 26 285 29 2 0 0 -3 -5 -8z
m-320 -101 c-75 -18 -210 -34 -370 -45 -56 -4 -50 -1 35 11 58 8 161 23 230
33 163 24 205 24 105 1z m-112 -267 c-7 -2 -19 -2 -25 0 -7 3 -2 5 12 5 14 0
19 -2 13 -5z m124 -9 c-3 -3 -12 -4 -19 -1 -8 3 -5 6 6 6 11 1 17 -2 13 -5z
m-50 -10 c-3 -3 -12 -4 -19 -1 -8 3 -5 6 6 6 11 1 17 -2 13 -5z"/>
<path d="M7545 7253 c-64 -33 -115 -55 -115 -48 0 2 23 16 50 30 28 14 50 28
50 31 0 17 -83 -13 -169 -61 -78 -43 -108 -55 -161 -61 -60 -6 -139 -29 -129
-38 2 -2 27 0 56 3 29 4 50 4 47 0 -2 -4 -34 -11 -71 -15 -92 -9 -180 -63
-105 -64 34 -1 13 -14 -38 -25 -44 -9 -72 -31 -117 -91 -28 -37 -33 -48 -22
-55 15 -10 77 -3 94 11 18 15 139 29 153 17 7 -5 11 -11 9 -14 -2 -2 -66 -12
-142 -23 -76 -10 -142 -23 -148 -29 -5 -5 -15 -7 -21 -5 -7 3 -97 -13 -200
-35 -134 -29 -223 -43 -314 -47 -70 -4 -125 -4 -122 -1 10 10 376 86 505 105
l130 18 3 63 3 63 -73 -6 -73 -5 64 14 c36 8 67 17 69 20 9 9 13 73 5 78 -5 2
-48 -2 -98 -9 -49 -7 -115 -13 -145 -12 l-55 0 44 14 c24 7 49 21 55 30 8 10
46 21 109 31 82 14 97 19 97 35 0 22 -6 22 -79 4 -57 -14 -290 -41 -297 -34
-2 2 77 17 176 33 99 16 186 32 193 37 9 5 9 12 1 25 -10 15 -26 18 -110 18
-54 0 -114 -3 -132 -6 -17 -4 -35 -3 -38 2 -5 9 -689 11 -761 2 l-41 -5 0
-134 c0 -104 3 -134 13 -134 7 0 42 9 77 21 45 15 96 22 178 24 131 4 133 5
-95 -38 l-170 -32 1 -60 c1 -33 2 -74 3 -91 l1 -30 158 26 c184 32 269 43 262
36 -3 -2 -97 -21 -210 -41 -113 -20 -206 -38 -208 -40 -20 -20 31 -17 183 11
178 33 243 41 175 23 -19 -6 -48 -16 -65 -23 -16 -7 -86 -21 -155 -31 -145
-20 -150 -21 -150 -35 0 -5 24 -11 53 -11 l52 -1 -47 -10 c-31 -7 -48 -15 -48
-25 0 -9 6 -12 18 -9 75 22 277 55 371 60 63 4 113 4 110 1 -3 -3 -115 -27
-249 -54 -133 -27 -246 -54 -250 -61 -4 -6 -7 -42 -6 -78 1 -74 -3 -71 76 -57
22 4 23 3 5 -5 -11 -5 -32 -14 -47 -20 -21 -7 -28 -16 -28 -35 0 -14 4 -25 10
-25 15 0 303 50 325 57 20 6 20 5 1 -16 -11 -11 -35 -25 -55 -31 -31 -8 -227
-30 -270 -30 -9 0 -12 -8 -9 -25 3 -14 1 -25 -3 -25 -10 0 -12 -127 -3 -182
l6 -36 22 24 c17 20 46 30 155 54 74 16 136 28 138 27 1 -2 -71 -29 -161 -62
l-164 -58 -1 -68 c-1 -48 2 -69 11 -69 9 0 9 -3 0 -12 -7 -7 -12 -32 -12 -56
l0 -45 43 6 42 5 -40 -12 c-24 -8 -41 -20 -43 -31 -4 -15 2 -17 45 -12 l48 6
-40 -11 c-22 -6 -42 -12 -44 -14 -2 -2 -5 -33 -7 -69 -4 -78 -8 -77 134 -41
120 30 322 69 328 63 2 -2 -22 -16 -53 -30 -37 -16 -117 -35 -223 -53 -91 -15
-171 -33 -179 -40 -17 -16 -6 -34 22 -35 l22 0 -22 -9 c-20 -8 -23 -17 -23
-58 0 -45 2 -49 23 -46 131 21 320 44 323 41 7 -7 -111 -34 -231 -53 -112 -17
-141 -28 -116 -43 11 -7 11 -9 0 -13 -8 -3 -11 -9 -6 -13 4 -5 65 8 135 28
114 33 550 122 558 114 2 -1 -148 -38 -334 -81 -185 -44 -343 -81 -349 -84 -9
-3 -13 -25 -13 -63 l0 -59 58 -1 c63 -1 61 -4 -10 -14 l-47 -6 0 -266 c0 -146
1 -269 4 -272 2 -4 44 0 92 8 52 8 97 11 109 6 16 -6 12 -9 -21 -16 -22 -4
-60 -13 -85 -18 -25 -5 -57 -12 -72 -15 l-28 -6 0 -190 c0 -185 1 -190 20
-190 12 0 96 11 188 25 242 37 596 84 600 80 3 -3 -260 -68 -448 -110 -58 -13
-157 -29 -220 -35 -63 -7 -122 -16 -130 -21 -27 -15 309 -10 405 6 50 8 149
22 220 30 72 8 150 17 175 21 25 3 43 3 40 0 -6 -5 -238 -52 -295 -59 -16 -2
97 -4 252 -4 l281 -1 1 174 1 174 -28 1 -27 1 25 7 c23 6 25 12 28 68 l3 62
-108 -5 c-129 -5 -124 4 8 14 l94 7 3 323 c2 247 -1 322 -10 322 -9 0 -9 3 0
12 11 11 18 98 8 98 -3 0 -60 -13 -128 -30 -68 -16 -179 -36 -248 -45 -69 -9
-207 -29 -307 -46 -99 -16 -189 -29 -200 -28 -42 1 312 92 543 139 322 65 344
70 344 81 0 12 -23 11 -100 -6 -36 -8 -74 -14 -85 -14 -19 0 7 9 128 43 l58
17 -2 74 c-1 50 -6 75 -14 75 -6 0 -47 -11 -91 -23 -75 -23 -154 -39 -154 -33
0 6 174 66 215 74 l40 8 1 102 c1 101 1 102 -23 102 -21 0 -22 3 -13 20 6 11
17 20 25 20 11 0 15 12 15 41 0 23 7 57 16 77 44 98 67 141 99 182 18 25 32
46 31 47 -2 2 -49 -6 -105 -18 -57 -11 -105 -19 -107 -16 -2 2 51 16 120 32
68 15 134 36 147 46 l24 19 -30 1 c-20 0 12 15 100 46 119 41 142 45 270 53
77 5 158 11 180 14 26 4 20 1 -15 -7 l-55 -13 40 -14 c22 -7 50 -20 63 -28 22
-15 28 -15 177 3 30 4 35 3 20 -4 -11 -5 -38 -10 -60 -11 -22 -1 -48 -5 -58
-9 -16 -6 -15 -9 10 -32 15 -14 48 -47 71 -73 41 -45 45 -47 74 -37 34 12 158
26 158 19 0 -3 -40 -16 -89 -28 l-89 -22 10 -28 c15 -46 26 -49 113 -34 44 7
87 13 95 13 27 -1 -58 -28 -107 -34 -75 -10 -73 -8 -56 -62 8 -26 17 -64 20
-83 3 -19 6 -36 7 -37 1 -1 20 4 41 11 22 7 94 16 160 20 109 5 118 5 95 -9
-28 -17 -174 -65 -196 -65 -7 0 -14 7 -14 15 0 11 -11 15 -39 15 l-40 0 2 -67
c2 -62 4 -68 27 -74 24 -7 24 -7 3 -8 -21 -1 -23 -6 -23 -57 0 -41 3 -55 13
-51 27 10 129 28 134 24 2 -3 -22 -13 -54 -22 -32 -9 -66 -18 -75 -21 -13 -4
-18 -16 -18 -40 0 -29 3 -34 18 -30 47 14 262 66 274 66 9 0 8 -5 -3 -16 -9
-8 -76 -33 -149 -55 -74 -22 -135 -40 -136 -42 -3 -2 -6 -92 -5 -121 1 -13 6
-16 19 -11 40 17 83 23 79 12 -2 -7 -23 -17 -48 -23 -33 -8 -45 -16 -47 -32
-2 -16 2 -22 15 -22 17 -1 17 -1 -1 -15 -17 -13 -19 -28 -18 -127 1 -259 1
-261 15 -250 6 5 35 13 62 16 l50 5 -62 -20 -63 -21 0 -52 0 -53 31 5 c22 3
30 1 25 -7 -4 -6 -18 -11 -32 -11 -21 0 -24 -5 -25 -37 -4 -102 0 -177 11
-183 9 -6 9 -9 1 -11 -10 -4 -17 -135 -12 -207 1 -10 20 -11 84 -6 101 8 98
-2 -6 -17 -71 -11 -77 -13 -78 -35 0 -13 0 -52 -1 -86 l0 -63 53 -8 c69 -10
804 -1 929 12 52 5 101 10 108 10 19 2 14 21 -5 21 -17 1 -17 1 0 11 13 8 17
24 17 75 l0 64 -27 -5 -28 -5 28 11 c37 15 34 37 -5 42 l-33 4 33 1 c31 2 32
3 32 47 0 29 -4 45 -12 45 -7 0 -90 -11 -184 -25 -208 -29 -335 -40 -314 -27
16 11 233 45 403 63 70 8 106 16 104 23 -2 6 -13 10 -23 9 -10 -1 -57 -4 -104
-7 -69 -4 -76 -3 -35 4 151 27 163 31 163 57 0 23 -3 25 -37 19 -101 -17 -115
-18 -108 -11 4 5 38 16 75 25 67 16 67 16 70 53 3 34 1 37 -25 38 -28 1 -28 1
-3 8 24 6 25 11 28 85 l2 78 -62 -6 -63 -5 40 14 c22 7 50 14 63 14 22 1 22 2
22 166 l0 165 -32 1 -33 1 30 7 c34 7 46 37 18 44 -17 4 -17 5 0 6 14 1 17 10
17 51 l0 50 -37 1 -38 2 34 6 c36 6 56 31 25 31 -16 0 -16 1 -1 18 18 20 23
62 8 62 -5 0 -14 -6 -20 -14 -6 -7 -48 -21 -94 -30 -45 -10 -91 -20 -102 -23
-35 -9 -4 13 79 58 43 23 92 45 110 48 27 6 31 11 34 45 l3 38 -43 -7 c-24 -3
-56 -9 -73 -12 -45 -8 -27 3 45 29 61 22 65 25 68 57 l3 33 -53 -6 -53 -6 53
16 c39 12 52 21 52 35 0 15 -5 18 -22 14 -107 -26 -178 -42 -178 -39 0 2 5 14
11 28 13 27 118 76 164 76 22 0 25 4 25 35 l0 34 -37 -13 c-46 -16 -113 -29
-113 -22 0 3 34 15 76 27 l75 22 -7 56 c-3 31 -7 57 -8 57 0 1 -62 -16 -136
-36 -74 -21 -136 -38 -137 -37 -1 1 6 12 15 25 13 16 41 27 107 42 50 11 103
20 118 20 25 0 47 23 35 36 -3 2 -37 -2 -77 -11 -78 -16 -108 -19 -98 -8 4 3
42 14 84 23 74 16 78 18 80 46 4 54 -2 56 -123 39 -181 -26 -181 -26 -159 -16
11 5 78 16 148 26 102 15 127 21 122 32 -3 8 -5 19 -5 25 0 6 -19 9 -46 6 -44
-3 -45 -3 -23 12 61 40 62 42 48 90 -7 25 -19 51 -28 58 -9 8 -10 12 -3 12 15
0 8 35 -18 95 -9 22 -20 48 -24 58 -4 14 -13 17 -33 13 -16 -3 -88 -15 -160
-26 l-133 -20 -20 20 c-16 16 -33 20 -90 20 -38 0 -70 3 -70 8 0 4 96 22 213
41 251 40 252 40 235 64 -12 15 -20 15 -128 -2 -175 -28 -215 -32 -205 -22 6
6 75 22 155 36 80 15 147 29 149 31 14 13 -18 16 -72 7 -34 -6 -64 -9 -66 -7
-2 1 22 10 53 19 31 9 56 19 56 22 0 12 -35 63 -45 64 -5 1 -23 0 -39 -1 -18
-1 -26 2 -22 9 4 6 16 11 27 11 12 0 19 5 16 13 -6 17 -53 14 -317 -17 -222
-26 -278 -30 -269 -22 7 7 180 34 369 56 96 11 175 22 177 24 2 1 -6 11 -16
20 -18 16 -27 17 -143 2 -67 -8 -154 -18 -193 -21 l-70 -5 40 16 c22 8 98 24
169 34 71 11 131 21 133 24 2 2 -10 15 -27 30 -29 24 -40 26 -128 27 l-97 2
73 10 c39 5 72 13 72 16 0 6 -58 41 -130 77 -25 12 -93 39 -152 58 l-107 36
-78 -14 c-114 -21 -330 -49 -344 -44 -7 2 8 16 34 31 66 39 67 47 5 47 -37 -1
-68 -9 -103 -27z m65 -7 c0 -5 -72 -51 -92 -59 -32 -11 -19 2 30 33 44 28 62
35 62 26z m279 -70 c-11 -11 -184 -55 -236 -60 l-58 -6 85 25 c98 29 222 53
209 41z m-1714 -37 c-55 -17 -205 -38 -308 -44 -127 -6 -94 7 71 29 64 9 128
18 142 20 14 2 48 4 75 4 45 0 47 -1 20 -9z m2055 -20 c-83 -37 -182 -59 -260
-58 l-75 1 50 14 c76 21 277 63 305 63 20 0 16 -4 -20 -20z m-850 -13 c0 -2
-11 -11 -25 -20 -14 -9 -25 -13 -25 -8 0 5 10 14 23 20 27 13 27 13 27 8z
m-1070 -28 c-14 -5 -61 -11 -105 -14 -44 -2 -73 -1 -65 1 22 8 131 22 165 23
30 1 30 1 5 -10z m-90 -57 c-14 -5 -48 -11 -75 -14 l-50 -6 45 14 c25 7 59 13
75 13 29 0 29 0 5 -7z m518 2 c-10 -2 -26 -2 -35 0 -10 3 -2 5 17 5 19 0 27
-2 18 -5z m1327 -18 c-183 -31 -208 -35 -202 -28 15 15 200 51 262 51 69 0 68
-1 -60 -23z m-468 9 c-3 -3 -12 -4 -19 -1 -8 3 -5 6 6 6 11 1 17 -2 13 -5z
m170 -20 c-3 -3 -12 -4 -19 -1 -8 3 -5 6 6 6 11 1 17 -2 13 -5z m-1360 -10
c-3 -3 -12 -4 -19 -1 -8 3 -5 6 6 6 11 1 17 -2 13 -5z m1318 0 c-24 -9 -349
-74 -353 -70 -12 13 258 74 328 74 19 0 31 -1 25 -4z m-490 -34 c-16 -4 -39
-8 -50 -8 -16 0 -15 2 5 8 14 4 36 8 50 8 22 0 22 -1 -5 -8z m-897 -5 c-5 -6
-570 -96 -574 -92 -6 6 306 79 372 86 80 10 210 13 202 6z m117 -106 c-49 -11
-94 -18 -100 -16 -12 4 131 35 165 35 14 0 -15 -9 -65 -19z m2190 -19 c-32
-21 -41 -20 -32 5 4 8 18 15 34 15 l28 0 -30 -20z m-1262 3 c-7 -2 -21 -2 -30
0 -10 3 -4 5 12 5 17 0 24 -2 18 -5z m1201 -6 c-6 -17 -238 -103 -329 -122
-96 -20 -226 -38 -232 -32 -2 3 12 10 31 17 20 6 36 17 36 24 0 6 61 31 138
54 196 61 368 90 356 59z m-1257 -3 c-3 -3 -12 -4 -19 -1 -8 3 -5 6 6 6 11 1
17 -2 13 -5z m542 -18 c-5 -5 -264 -46 -282 -45 -25 2 51 21 133 34 86 13 157
18 149 11z m211 -12 c-60 -17 -436 -101 -438 -99 -9 8 225 77 303 89 84 13
169 19 135 10z m-632 -39 c-20 -7 -71 -20 -115 -29 -79 -16 -396 -65 -400 -62
-15 14 55 30 267 64 287 45 299 46 248 27z m187 -31 c-207 -76 -763 -219 -782
-200 -3 3 5 20 18 38 12 18 23 34 23 35 4 7 416 91 556 113 205 33 244 35 185
14z m194 -28 c-10 -10 -315 -96 -338 -95 -32 1 8 15 189 64 119 32 159 40 149
31z m-929 -29 c-9 -8 -119 -29 -270 -50 -281 -41 -295 -42 -265 -25 16 9 462
82 530 87 17 1 17 -1 5 -12z m1037 -3 c-16 -8 -36 -13 -45 -11 -11 2 -5 7 18
14 50 16 59 15 27 -3z m-1154 -61 c-7 -2 -19 -2 -25 0 -7 3 -2 5 12 5 14 0 19
-2 13 -5z m-83 -15 c-25 -6 -148 -29 -275 -53 -197 -37 -226 -40 -207 -24 13
10 44 21 70 25 26 4 126 19 222 34 179 28 278 37 190 18z m-420 -12 c-23 -13
-439 -80 -447 -73 -9 10 374 84 442 85 l30 1 -25 -13z m554 -26 c-15 -22 -30
-40 -33 -40 -4 0 -173 -25 -376 -55 -203 -30 -371 -53 -373 -51 -2 3 16 15 40
29 33 19 114 37 353 81 171 32 326 61 345 66 70 16 73 14 44 -30z m1391 31
c-32 -30 -385 -115 -402 -97 -6 5 241 84 298 95 61 12 115 13 104 2z m225 -1
c21 -13 7 -17 -124 -35 -151 -21 -160 -19 -91 14 48 24 74 30 130 30 39 0 77
-3 85 -9z m-2280 -65 c0 -2 -17 -13 -37 -24 -36 -17 -400 -87 -409 -78 -8 8
226 69 331 87 123 22 115 21 115 15z m1506 -26 c-49 -16 -90 -28 -93 -26 -7 7
131 56 157 55 14 0 -15 -13 -64 -29z m452 -15 c-8 -7 -176 -34 -208 -33 -40 1
-11 8 91 23 113 17 124 18 117 10z m627 -43 c-52 -19 -233 -47 -242 -38 -17
18 146 55 247 55 l45 1 -50 -18z m-291 -41 c-10 -10 -163 -34 -170 -27 -5 5
127 34 161 36 12 1 16 -2 9 -9z m343 -20 c-67 -21 -245 -55 -252 -48 -5 5 268
66 295 66 8 0 -11 -8 -43 -18z m-257 -14 c-20 -8 -56 -17 -80 -21 -42 -6 -44
-6 -24 8 19 15 57 23 114 25 21 0 19 -2 -10 -12z m-150 -11 c0 -23 -124 -57
-349 -95 -153 -26 -187 -24 -77 5 49 13 93 29 97 37 5 8 65 21 161 34 84 12
156 22 161 23 4 0 7 -1 7 -4z m480 -6 c-52 -35 -68 -39 -95 -25 -27 14 -27 14
27 24 77 14 87 14 68 1z m-104 -58 c-3 -5 -27 -14 -53 -20 -49 -11 -274 -42
-296 -40 -17 1 95 37 168 54 68 15 189 20 181 6z m-446 -56 c-46 -18 -74 -17
-35 0 17 8 39 14 50 14 13 0 8 -5 -15 -14z m-2161 -20 c-7 -7 -301 -97 -305
-93 -6 6 260 97 285 97 13 1 22 -1 20 -4z m2026 -10 c-16 -8 -41 -14 -55 -14
-22 0 -21 2 10 14 48 19 86 18 45 0z m655 -29 c-73 -27 -83 -29 -78 -15 3 8
20 17 39 20 58 11 76 8 39 -5z m-116 -21 c-4 -8 -7 -15 -8 -16 -17 -6 -156
-24 -156 -20 0 12 46 36 80 42 67 12 90 10 84 -6z m-219 -36 c-22 -10 -49 -18
-60 -18 -26 1 52 38 80 37 13 0 6 -6 -20 -19z m-1765 -3 c-19 -7 -53 -16 -75
-19 -36 -5 -34 -4 15 13 62 21 116 26 60 6z m1610 -20 c-25 -13 -278 -52 -286
-44 -4 5 257 56 291 57 17 0 17 -2 -5 -13z m-307 -53 c-7 -2 -19 -2 -25 0 -7
3 -2 5 12 5 14 0 19 -2 13 -5z m565 -35 c-19 -29 -159 -80 -165 -60 -7 19 -20
15 -82 -23 -43 -27 -71 -36 -121 -41 l-65 -5 105 46 c90 40 286 102 329 104
11 1 11 -3 -1 -21z m-2058 3 c-19 -11 -107 -26 -99 -17 3 4 26 10 50 15 59 12
67 12 49 2z m-765 -40 c-31 -13 -91 -24 -83 -16 8 8 63 23 88 23 9 1 7 -3 -5
-7z m3075 5 c0 -2 -7 -7 -16 -10 -8 -3 -12 -2 -9 4 6 10 25 14 25 6z m-2300
-56 c-19 -10 -64 -21 -100 -25 -36 -3 -78 -9 -95 -12 -23 -4 -27 -2 -19 7 6 6
56 20 110 30 131 24 148 24 104 0z m2117 -1 c-22 -12 -52 -19 -70 -17 -31 3
-30 4 18 20 72 23 99 22 52 -3z m-467 7 c0 -12 -163 -64 -215 -69 -72 -7 -64
-4 85 39 121 35 130 37 130 30z m525 -55 c-6 -5 -27 -16 -49 -25 -33 -14 -37
-14 -26 -1 7 8 27 19 44 24 42 12 41 12 31 2z m-2608 -42 c-19 -11 -407 -82
-414 -76 -5 5 236 66 286 72 18 2 36 7 39 10 3 3 28 5 56 5 40 -1 47 -3 33
-11z m2248 -4 c-16 -7 -46 -16 -65 -20 -28 -6 -33 -5 -23 5 7 7 29 16 50 20
58 12 71 10 38 -5z m205 0 c0 -10 -80 -57 -90 -53 -7 2 10 16 37 31 52 29 53
29 53 22z m-324 -12 c-7 -7 -134 -42 -151 -41 -14 0 127 47 144 47 8 1 11 -2
7 -6z m149 -22 c-12 -11 -168 -61 -174 -55 -10 10 19 26 80 44 71 21 108 25
94 11z m310 -20 c-3 -6 -11 -11 -17 -11 -6 0 -6 6 2 15 14 17 26 13 15 -4z
m-59 0 c-8 -13 -67 -38 -106 -45 -26 -5 -19 0 30 23 71 32 84 36 76 22z
m-2381 -36 c-55 -19 -90 -18 -50 0 17 8 44 14 60 14 29 -1 28 -2 -10 -14z
m295 -10 c-108 -19 -196 -28 -189 -21 9 9 176 34 224 34 29 0 20 -4 -35 -13z
m1620 6 c0 -8 -197 -62 -217 -60 -10 1 187 67 205 68 6 1 12 -3 12 -8z m146
-6 c-22 -17 -145 -59 -152 -52 -9 9 22 25 86 45 79 24 91 26 66 7z m-2531 -24
c-29 -12 -111 -23 -102 -15 4 4 26 11 50 15 58 9 76 9 52 0z m2982 3 c-3 -3
-12 -4 -19 -1 -8 3 -5 6 6 6 11 1 17 -2 13 -5z m-2420 -10 c-3 -3 -12 -4 -19
-1 -8 3 -5 6 6 6 11 1 17 -2 13 -5z m2376 -1 c-7 -2 -19 -2 -25 0 -7 3 -2 5
12 5 14 0 19 -2 13 -5z m-2247 -19 c-49 -18 -52 -20 -37 -38 10 -12 7 -16 -21
-21 -52 -10 -608 -71 -608 -67 0 2 28 16 63 32 51 23 106 35 302 64 132 19
251 37 265 39 14 2 36 5 50 5 19 0 16 -3 -14 -14z m2164 7 c-18 -10 -95 -23
-87 -14 7 6 64 21 87 22 13 0 13 -1 0 -8z m129 -15 c-2 -2 -30 -13 -61 -24
-43 -16 -56 -18 -52 -8 3 8 22 19 42 24 38 10 79 15 71 8z m-154 -45 c-6 -5
-30 -11 -55 -15 l-45 -5 40 14 c48 16 73 19 60 6z m-210 -21 c-28 -12 -47 -12
-40 0 3 6 18 10 33 9 24 0 25 -1 7 -9z m-1850 -36 c-27 -7 -54 -13 -60 -13
-17 2 69 27 90 27 11 0 -2 -6 -30 -14z m-335 -4 c-14 -5 -128 -23 -255 -40
-126 -16 -246 -32 -265 -35 -35 -5 -35 -5 -10 9 14 8 111 24 215 36 105 12
217 25 250 30 80 10 95 10 65 0z m2480 -44 c-47 -24 -100 -47 -118 -51 -31 -6
-33 -5 -23 12 17 32 37 44 108 63 116 31 126 23 33 -24z m-335 24 c-28 -12
-37 -12 -30 0 3 6 16 10 28 9 21 0 21 -1 2 -9z m-1978 -16 c-3 -3 -12 -4 -19
-1 -8 3 -5 6 6 6 11 1 17 -2 13 -5z m2138 -48 c-12 -17 -29 -26 -63 -30 -26
-4 -63 -10 -82 -13 -56 -9 -25 12 60 41 96 33 105 33 85 2z m-410 -6 c-3 -5
-14 -10 -23 -10 -15 0 -15 2 -2 10 20 13 33 13 25 0z m725 -4 c-16 -15 -121
-35 -107 -20 5 5 32 14 60 20 29 7 54 12 57 13 2 0 -2 -5 -10 -13z m-824 -11
c-19 -14 -56 -21 -56 -10 0 7 41 24 60 24 11 0 10 -3 -4 -14z m771 -42 c-8 -7
-199 -31 -256 -32 -68 -2 -21 11 91 24 135 15 174 17 165 8z m-800 -29 c-3 -3
-12 -4 -19 -1 -8 3 -5 6 6 6 11 1 17 -2 13 -5z m-1322 -15 c-22 -4 -53 -8 -70
-7 -29 1 -29 1 5 8 19 4 51 7 70 8 l35 0 -40 -9z m1733 0 c-10 -5 -42 -12 -70
-14 l-53 -4 55 13 c70 18 91 19 68 5z m332 1 c-15 -8 -134 -30 -245 -45 -42
-6 -48 -4 -37 7 7 7 67 20 140 29 163 21 161 21 142 9z m-322 -42 c-4 -12 -87
-32 -95 -24 -4 4 73 34 90 35 5 1 7 -5 5 -11z m-1805 -9 c-6 -6 -39 -12 -74
-14 l-64 -4 70 13 c39 8 72 14 75 15 2 0 -1 -4 -7 -10z m1518 -33 c-10 -12
-71 -28 -71 -19 0 5 62 32 74 33 5 0 3 -6 -3 -14z m59 4 c0 -5 -5 -10 -11 -10
-5 0 -7 5 -4 10 3 6 8 10 11 10 2 0 4 -4 4 -10z m-2173 -26 c-3 -3 -12 -4 -19
-1 -8 3 -5 6 6 6 11 1 17 -2 13 -5z m2738 -34 c-3 -5 -16 -10 -28 -9 -21 0
-21 1 -2 9 28 12 37 12 30 0z m135 0 c-8 -5 -26 -10 -40 -10 -20 0 -22 2 -10
10 8 5 26 10 40 10 20 0 22 -2 10 -10z m-2782 -40 c-92 -24 -178 -34 -178 -21
0 6 6 11 13 12 6 0 48 6 92 14 117 19 153 17 73 -5z m42 -36 c-76 -18 -136
-28 -129 -20 9 9 128 34 159 34 14 0 0 -6 -30 -14z m-320 -3 c-20 -12 -130
-34 -136 -28 -6 5 102 35 131 36 16 0 17 -1 5 -8z m3039 -5 c-2 -2 -35 -6 -74
-9 -44 -4 -59 -3 -40 2 30 9 122 14 114 7z m-3009 -36 c-8 -5 -28 -9 -45 -9
-29 1 -29 1 -5 9 14 4 34 8 45 9 16 1 17 -1 5 -9z m3040 6 c0 -3 -4 -8 -10
-11 -5 -3 -10 -1 -10 4 0 6 5 11 10 11 6 0 10 -2 10 -4z m-119 -27 c-29 -17
-121 -42 -129 -35 -5 6 53 41 78 47 14 4 39 7 55 8 l30 1 -34 -21z m-174 -25
c-27 -14 -53 -24 -59 -22 -18 6 55 48 82 47 21 0 17 -4 -23 -25z m-2080 0 c-3
-3 -12 -4 -19 -1 -8 3 -5 6 6 6 11 1 17 -2 13 -5z m1993 2 c0 -8 -67 -46 -80
-46 -8 0 -4 10 10 25 19 21 70 36 70 21z m-2043 -12 c-3 -3 -12 -4 -19 -1 -8
3 -5 6 6 6 11 1 17 -2 13 -5z m1921 -10 c-13 -14 -157 -48 -165 -40 -2 1 3 10
10 19 10 15 80 31 152 36 18 1 18 0 3 -15z m-228 -18 c0 -2 -15 -14 -34 -25
-35 -22 -66 -27 -66 -11 0 7 38 23 98 39 1 1 2 -1 2 -3z m30 -26 c0 -5 -5 -10
-11 -10 -5 0 -7 5 -4 10 3 6 8 10 11 10 2 0 4 -4 4 -10z m-160 -19 c0 -5 -14
-11 -30 -13 -33 -5 -29 7 5 15 11 3 21 5 23 6 1 0 2 -3 2 -8z m667 -7 c-3 -3
-12 -4 -19 -1 -8 3 -5 6 6 6 11 1 17 -2 13 -5z m-221 -33 c-3 -5 -27 -12 -53
-15 -27 -4 -61 -9 -78 -13 -16 -3 -27 -2 -23 2 5 5 41 14 80 20 40 7 74 13 76
14 2 0 1 -3 -2 -8z m-340 -50 c-4 -5 -25 -12 -49 -16 -23 -3 -51 -9 -62 -12
-14 -4 -17 -2 -10 5 6 6 33 15 60 20 68 13 67 13 61 3z m-161 -31 c-3 -5 -13
-10 -21 -10 -8 0 -12 5 -9 10 3 6 13 10 21 10 8 0 12 -4 9 -10z m-1520 -66
c-86 -24 -145 -36 -157 -32 -17 6 138 46 177 46 24 1 19 -2 -20 -14z m-245
-24 c-14 -4 -36 -8 -50 -8 l-25 0 25 8 c14 4 36 8 50 8 l25 0 -25 -8z m2633
-37 c-7 -2 -19 -2 -25 0 -7 3 -2 5 12 5 14 0 19 -2 13 -5z m-2818 -13 c-11 -5
-42 -8 -70 -8 -43 0 -46 1 -20 8 44 11 116 11 90 0z m2742 4 c-3 -3 -12 -4
-19 -1 -8 3 -5 6 6 6 11 1 17 -2 13 -5z m-2422 -14 c-11 -5 -33 -8 -50 -8
l-30 0 30 8 c17 4 39 8 50 8 l20 1 -20 -9z m2370 -45 c-24 -9 -400 -76 -514
-91 -94 -13 -129 -14 -143 -5 -10 6 -35 11 -55 12 -72 1 -1 17 149 34 392 45
598 63 563 50z m-37 -56 c-19 -10 -146 -29 -193 -28 -31 1 142 36 185 38 21 0
22 -1 8 -10z m-2423 -40 c-39 -11 -429 -59 -469 -58 -20 1 4 10 64 26 68 17
112 23 155 20 33 -3 98 1 145 8 47 7 96 13 110 13 22 0 22 -1 -5 -9z m1740
-18 c-28 -11 -142 -25 -133 -16 11 11 68 23 113 23 30 1 35 -1 20 -7z m702 -7
c-3 -3 -12 -4 -19 -1 -8 3 -5 6 6 6 11 1 17 -2 13 -5z m-59 -11 c-10 -2 -26
-2 -35 0 -10 3 -2 5 17 5 19 0 27 -2 18 -5z m-555 -30 c-7 -2 -21 -2 -30 0
-10 3 -4 5 12 5 17 0 24 -2 18 -5z m-66 -9 c-3 -3 -12 -4 -19 -1 -8 3 -5 6 6
6 11 1 17 -2 13 -5z m356 -1 c-7 -2 -19 -2 -25 0 -7 3 -2 5 12 5 14 0 19 -2
13 -5z m-60 -10 c-7 -2 -21 -2 -30 0 -10 3 -4 5 12 5 17 0 24 -2 18 -5z m-76
-9 c-3 -3 -12 -4 -19 -1 -8 3 -5 6 6 6 11 1 17 -2 13 -5z m-54 -11 c-7 -2 -21
-2 -30 0 -10 3 -4 5 12 5 17 0 24 -2 18 -5z m22 -44 c-22 -4 -58 -7 -80 -7
l-40 1 45 7 c25 4 61 7 80 7 l35 1 -40 -9z m594 -33 c-9 -10 -260 -77 -272
-73 -12 4 38 21 173 58 62 17 108 24 99 15z m-436 -33 c-7 -2 -19 -2 -25 0 -7
3 -2 5 12 5 14 0 19 -2 13 -5z m104 -28 c-78 -31 -115 -38 -335 -63 -136 -16
-249 -28 -250 -26 -8 6 88 26 358 73 157 27 292 49 300 50 8 0 -25 -15 -73
-34z m-1977 -18 c0 -9 -26 -17 -82 -24 -46 -6 -84 -10 -86 -8 -2 2 139 41 161
44 4 1 7 -5 7 -12z m1445 -17 c-11 -5 -36 -8 -55 -8 l-35 1 35 7 c19 4 44 8
55 8 l20 1 -20 -9z m828 -57 c-7 -2 -19 -2 -25 0 -7 3 -2 5 12 5 14 0 19 -2
13 -5z"/>
<path d="M4130 7215 l0 -42 123 18 c67 10 133 18 147 18 23 -1 -47 -15 -202
-40 -68 -11 -68 -11 -68 -44 l0 -33 64 14 c93 19 348 56 353 50 11 -10 -200
-69 -304 -84 l-113 -16 0 -70 0 -69 43 7 c75 13 441 56 462 55 42 -2 -44 -20
-267 -58 -124 -22 -231 -42 -237 -46 -14 -8 -14 -52 -1 -60 5 -3 71 1 146 10
74 9 138 15 140 12 2 -2 -55 -21 -128 -42 -73 -20 -140 -41 -149 -46 -13 -7
-15 -24 -11 -106 2 -54 5 -99 5 -99 1 -1 72 9 157 21 85 13 236 35 335 49 99
15 215 33 259 41 83 16 113 18 104 10 -12 -12 -319 -66 -570 -99 -146 -20
-270 -36 -276 -36 -5 0 -10 -18 -10 -41 l-1 -40 47 5 47 6 -44 -13 c-42 -12
-68 -37 -39 -37 10 0 9 -3 -2 -10 -32 -20 5 -22 114 -5 159 24 167 14 10 -13
-70 -12 -130 -25 -133 -28 -3 -3 -6 -44 -6 -92 l0 -86 50 3 c56 3 55 -9 -2
-18 -29 -5 -39 -11 -41 -29 -2 -13 2 -22 10 -22 8 0 6 -4 -4 -11 -10 -5 -18
-14 -18 -19 0 -6 8 -10 18 -10 16 -1 16 -1 0 -11 -19 -11 -24 -54 -8 -64 5 -3
72 3 147 14 76 11 176 22 223 25 l85 5 -60 -20 c-33 -11 -134 -29 -225 -40
-91 -12 -167 -22 -169 -25 -3 -3 -5 -210 -2 -251 1 -8 14 -7 49 3 50 16 293
55 327 53 30 -2 -73 -26 -229 -54 -77 -14 -144 -29 -149 -34 -12 -12 0 -31 21
-32 12 0 11 -3 -5 -9 -18 -7 -22 -16 -20 -40 2 -16 6 -32 9 -35 3 -3 43 3 89
14 114 27 370 73 375 69 2 -3 -14 -14 -35 -26 -26 -15 -106 -35 -233 -58 -106
-20 -197 -40 -202 -44 -5 -6 -4 -15 4 -25 8 -10 9 -15 1 -15 -6 0 -11 -7 -11
-16 0 -14 7 -15 38 -10 121 19 485 66 489 63 9 -10 -177 -50 -335 -72 -96 -14
-176 -25 -178 -25 -2 0 -4 -6 -4 -13 0 -11 11 -12 57 -5 87 14 96 4 16 -16
-50 -12 -74 -23 -78 -36 -7 -24 5 -52 20 -46 7 2 34 7 61 10 49 5 49 5 -9 -8
-60 -14 -75 -21 -64 -32 5 -6 304 49 582 106 159 33 269 50 321 50 48 0 52 2
57 28 3 15 2 31 -3 36 -5 4 -49 1 -101 -8 -51 -8 -95 -14 -97 -12 -6 7 110 47
154 53 l44 6 0 53 c0 30 -3 54 -7 54 -5 0 -37 -9 -73 -21 -61 -19 -329 -63
-337 -56 -5 6 304 86 360 93 29 4 51 13 56 23 10 18 7 258 -2 268 -4 3 -202
-22 -440 -56 -238 -33 -437 -61 -442 -60 -34 3 647 133 788 150 67 8 97 16 97
24 0 8 3 20 6 29 5 13 -2 16 -37 17 l-44 1 35 10 c19 5 38 15 42 21 7 11 4
154 -3 161 -2 3 -40 0 -83 -5 -44 -4 -82 -6 -84 -4 -7 6 12 11 98 27 93 16 90
34 -5 31 l-70 -2 50 13 c28 8 61 16 75 20 25 5 26 8 25 80 0 41 -3 77 -5 79
-3 2 -135 -15 -295 -39 -159 -24 -297 -43 -305 -41 -18 3 188 38 390 67 225
31 210 28 210 55 0 28 -1 29 -84 15 -196 -32 -821 -120 -835 -118 -8 2 39 15
104 30 66 15 170 39 230 52 61 14 207 39 325 56 254 36 260 37 260 51 0 7 -21
9 -62 6 l-63 -6 63 15 c51 13 62 19 63 37 1 26 -2 81 -5 84 -1 1 -58 -6 -126
-17 -144 -23 -336 -36 -305 -21 11 5 112 24 224 41 113 16 207 33 210 35 6 7
4 105 -3 112 -3 3 -63 -4 -133 -16 -138 -23 -384 -53 -390 -48 -4 5 279 84
366 103 36 7 85 14 109 14 54 0 58 7 53 109 -1 14 -10 21 -33 24 l-33 4 33 1
32 2 0 55 c0 46 -3 55 -17 55 -10 0 -137 -18 -283 -40 -145 -21 -266 -37 -268
-35 -2 1 45 19 105 39 76 25 155 42 268 56 88 12 169 25 180 30 27 12 -30 13
-532 15 l-413 1 0 -41z m608 9 c-7 -7 -176 -34 -203 -33 -11 1 25 9 80 19 116
20 130 22 123 14z m-260 -11 c-10 -2 -26 -2 -35 0 -10 3 -2 5 17 5 19 0 27 -2
18 -5z m15 -30 c-7 -2 -19 -2 -25 0 -7 3 -2 5 12 5 14 0 19 -2 13 -5z m186
-77 c-15 -15 -471 -107 -523 -105 -44 1 205 61 349 83 164 26 180 28 174 22z
m271 -51 c-97 -20 -300 -48 -305 -43 -6 5 308 56 345 56 14 0 -4 -6 -40 -13z
m30 -76 c-76 -19 -300 -52 -307 -45 -2 2 38 11 89 20 51 9 127 23 168 30 109
20 137 17 50 -5z m-237 -226 c-7 -2 -21 -2 -30 0 -10 3 -4 5 12 5 17 0 24 -2
18 -5z m-113 -19 c-63 -12 -220 -28 -190 -19 27 9 194 33 225 33 17 0 1 -6
-35 -14z m-61 -68 c-5 -6 -380 -66 -400 -65 -19 1 66 25 171 48 74 17 241 29
229 17z m149 -91 c-8 -8 -181 -45 -208 -44 -14 1 22 11 80 24 111 24 136 28
128 20z m-241 -51 c-3 -3 -12 -4 -19 -1 -8 3 -5 6 6 6 11 1 17 -2 13 -5z
m-300 -20 c-3 -3 -12 -4 -19 -1 -8 3 -5 6 6 6 11 1 17 -2 13 -5z m266 -91 c-7
-2 -21 -2 -30 0 -10 3 -4 5 12 5 17 0 24 -2 18 -5z m487 -98 c0 -4 -38 -15
-105 -31 -51 -12 -22 5 36 20 61 17 69 18 69 11z m-227 -31 c-54 -17 -112 -26
-234 -33 -90 -6 -164 -9 -166 -7 -6 5 115 26 277 46 187 25 211 23 123 -6z
m70 -51 c-7 -2 -21 -2 -30 0 -10 3 -4 5 12 5 17 0 24 -2 18 -5z m-66 -59 c-5
-5 -359 -54 -391 -54 -45 0 127 35 259 53 50 7 139 7 132 1z m-514 -101 c-7
-2 -19 -2 -25 0 -7 3 -2 5 12 5 14 0 19 -2 13 -5z m652 -82 c-21 -9 -157 -24
-140 -16 12 6 113 22 140 23 l20 1 -20 -8z m-535 -81 c-34 -11 -60 -11 -35 0
11 5 29 8 40 8 16 0 15 -2 -5 -8z m495 -131 c-99 -21 -191 -38 -204 -36 -34 3
295 75 344 75 23 0 -36 -16 -140 -39z m-85 -144 c-52 -13 -96 -22 -98 -21 -1
2 12 13 30 25 25 16 48 20 98 20 l65 -1 -95 -23z m318 -80 c-29 -16 -260 -58
-287 -53 -21 5 102 35 209 52 112 17 109 17 78 1z m-851 -71 c-3 -3 -12 -4
-19 -1 -8 3 -5 6 6 6 11 1 17 -2 13 -5z m664 -13 c-14 -11 -43 -22 -65 -26
-200 -32 -481 -74 -483 -71 -10 10 242 69 382 90 199 30 196 30 166 7z m-504
-147 c-3 -3 -12 -4 -19 -1 -8 3 -5 6 6 6 11 1 17 -2 13 -5z m-44 -11 c-7 -2
-21 -2 -30 0 -10 3 -4 5 12 5 17 0 24 -2 18 -5z"/>
<path d="M4805 5334 c-182 -35 -596 -93 -662 -94 -7 0 -13 -6 -13 -13 0 -8 14
-12 43 -10 l42 2 -42 -11 c-38 -10 -43 -14 -43 -39 0 -26 3 -28 28 -24 50 9
605 94 752 115 192 28 180 23 180 76 0 55 15 55 -285 -2z m112 -30 c-3 -3 -12
-4 -19 -1 -8 3 -5 6 6 6 11 1 17 -2 13 -5z m-67 -14 c-93 -19 -580 -100 -601
-99 -38 2 234 56 367 74 67 8 141 19 165 24 24 5 58 9 74 9 29 0 29 -1 -5 -8z"/>
<path d="M4765 5210 c-330 -49 -626 -97 -633 -104 -19 -20 35 -16 236 17 125
20 324 50 442 67 273 38 280 39 280 50 0 15 -43 11 -325 -30z"/>
<path d="M5025 5179 c-27 -4 -124 -18 -215 -29 -732 -94 -680 -85 -680 -111 0
-18 5 -19 53 -15 l52 5 -49 -12 c-27 -7 -51 -18 -54 -25 -5 -16 -1 -16 125 13
61 13 193 34 294 45 101 11 244 30 317 41 73 11 138 19 145 16 7 -2 -30 -14
-81 -26 -172 -41 -386 -73 -520 -78 -96 -4 -135 -9 -139 -19 -2 -7 -23 -15
-46 -19 -88 -13 -95 -16 -101 -40 -11 -43 2 -57 48 -51 l41 5 -39 -13 c-34
-11 -53 -30 -55 -58 -1 -13 56 -9 301 17 265 29 357 37 343 30 -9 -4 -610 -95
-628 -95 -4 0 -7 -7 -7 -16 0 -10 6 -14 18 -10 35 10 234 37 239 33 6 -6 -68
-22 -174 -37 l-81 -12 -4 -42 c-6 -50 -1 -66 21 -67 11 0 10 -3 -5 -9 -17 -7
-21 -16 -20 -42 l2 -33 59 2 60 2 -59 -12 -59 -12 -2 -108 c0 -60 2 -110 5
-112 3 -1 61 8 130 21 166 32 176 25 14 -10 -71 -15 -135 -30 -141 -32 -18 -5
-16 -54 2 -54 8 0 64 7 126 16 61 8 121 14 133 12 11 -2 -44 -13 -124 -24
-112 -15 -145 -23 -145 -34 0 -13 66 -15 481 -18 l482 -2 4 32 c3 18 4 71 4
118 l-1 85 -50 -3 c-27 -2 -142 -18 -255 -37 -113 -18 -232 -36 -265 -39 l-60
-5 55 14 c114 30 250 54 403 71 144 15 159 19 166 38 8 25 7 228 -2 242 -3 6
-2 16 4 24 5 8 9 23 9 33 0 15 -11 17 -82 18 l-83 1 60 14 c33 8 70 16 82 19
20 5 22 10 20 71 l-2 66 -60 -6 c-33 -3 -91 -8 -130 -11 -53 -3 -41 0 54 15
68 11 126 22 128 24 9 9 7 239 -2 241 -5 2 -32 -1 -60 -6z m-106 -234 c-6 -5
-266 -45 -288 -44 -9 1 40 12 109 24 122 22 188 30 179 20z m-326 -52 c-7 -2
-19 -2 -25 0 -7 3 -2 5 12 5 14 0 19 -2 13 -5z m230 0 c-7 -2 -19 -2 -25 0 -7
3 -2 5 12 5 14 0 19 -2 13 -5z m-300 -10 c-7 -2 -19 -2 -25 0 -7 3 -2 5 12 5
14 0 19 -2 13 -5z m322 -53 c-16 -4 -39 -8 -50 -8 -16 0 -15 2 5 8 14 4 36 8
50 8 22 0 22 -1 -5 -8z m-108 -106 c-3 -3 -12 -4 -19 -1 -8 3 -5 6 6 6 11 1
17 -2 13 -5z m228 -49 c-38 -13 -131 -30 -205 -39 -74 -9 -188 -23 -253 -31
-190 -24 -178 -15 23 16 102 16 244 39 315 53 170 31 213 32 120 1z m-475 -31
c-82 -14 -116 -17 -108 -9 7 7 114 23 153 23 17 -1 -4 -6 -45 -14z m-162 -61
c-10 -2 -26 -2 -35 0 -10 3 -2 5 17 5 19 0 27 -2 18 -5z m267 -124 c-51 -10
-92 -10 -50 1 17 4 44 8 60 8 25 0 24 -2 -10 -9z m334 7 c-7 -7 -340 -57 -353
-53 -17 6 258 53 328 56 16 0 27 -1 25 -3z"/>
</g>
</svg>
