<?xml version="1.0" standalone="no"?>
<!DOCTYPE svg PUBLIC "-//W3C//DTD SVG 20010904//EN"
 "http://www.w3.org/TR/2001/REC-SVG-20010904/DTD/svg10.dtd">
<svg version="1.0" xmlns="http://www.w3.org/2000/svg"
 width="1280.000000pt" height="1280.000000pt" viewBox="0 0 1280.000000 1280.000000"
 preserveAspectRatio="xMidYMid meet" >
<g transform="translate(0.000000,1280.000000) scale(0.100000,-0.100000)"
fill="#ffffff" stroke="none">
<path d="M5770 12644 c-80 -2 -660 -15 -1290 -29 -630 -13 -1253 -27 -1385
-31 -132 -3 -458 -9 -725 -13 -529 -8 -526 -8 -582 -67 -39 -42 -65 -108 -83
-214 -14 -77 -16 -154 -13 -449 4 -334 5 -360 26 -422 37 -111 98 -157 298
-223 290 -96 555 -328 692 -607 92 -189 131 -358 138 -604 7 -200 -8 -324 -56
-468 -39 -115 -64 -155 -215 -347 -154 -195 -215 -286 -271 -405 -68 -144 -95
-260 -101 -440 -6 -174 8 -277 58 -426 91 -273 301 -561 486 -668 39 -22 82
-55 94 -72 43 -61 35 -161 -19 -211 -15 -15 -84 -50 -153 -80 -213 -91 -340
-183 -405 -293 -26 -45 -29 -59 -29 -135 0 -76 3 -91 30 -140 38 -69 131 -164
215 -219 36 -23 119 -68 186 -101 145 -70 168 -93 161 -162 -6 -67 -43 -117
-127 -173 -234 -154 -445 -510 -505 -851 -19 -111 -19 -313 0 -434 30 -179
113 -385 227 -554 23 -34 91 -126 153 -206 192 -249 214 -290 236 -433 16
-103 6 -329 -21 -452 -88 -406 -353 -707 -760 -865 -140 -54 -148 -59 -193
-103 -52 -52 -103 -163 -129 -278 -17 -81 -21 -139 -25 -409 -5 -347 4 -447
51 -554 33 -74 104 -148 169 -176 66 -29 166 -35 772 -50 253 -6 726 -17 1050
-26 919 -22 2269 -27 4385 -15 2488 14 2915 24 3153 75 265 57 363 117 412
256 25 70 35 299 25 602 -10 293 -21 369 -66 445 -15 25 -43 53 -70 69 -39 23
-62 28 -174 35 -239 17 -428 85 -585 212 -218 176 -352 449 -400 814 -20 150
-20 466 0 598 25 167 43 207 205 449 218 329 260 406 319 589 51 161 65 260
65 477 0 269 -34 456 -113 626 -78 166 -164 266 -319 372 -91 62 -112 84 -112
118 0 32 32 53 119 80 384 116 599 438 476 712 -56 125 -219 233 -455 302
-120 35 -140 51 -140 115 0 50 26 93 109 180 281 294 461 707 461 1056 0 140
-41 326 -107 484 -39 92 -133 277 -213 415 -154 268 -195 422 -194 725 0 175
2 198 28 290 33 120 106 277 178 382 78 115 234 267 355 347 123 81 233 127
373 156 129 26 185 57 217 120 37 73 44 140 44 431 -1 488 -36 709 -124 773
-28 20 -45 21 -590 27 -309 4 -688 10 -842 13 -154 4 -629 13 -1055 21 -426 9
-977 20 -1225 25 -475 11 -1849 20 -2095 14z m1800 -484 c2020 -25 3118 -69
3362 -137 65 -18 129 -66 148 -113 16 -39 8 -101 -18 -138 -33 -46 -108 -80
-213 -96 -433 -69 -1789 -96 -4832 -99 -1372 -2 -1945 1 -2177 11 -1203 49
-1625 140 -1526 330 32 61 93 97 199 117 513 98 2750 153 5057 125z m1739
-962 c258 -97 495 -398 587 -746 32 -119 44 -361 25 -494 -37 -255 -115 -442
-281 -668 -187 -254 -284 -555 -285 -875 0 -222 34 -373 120 -545 73 -144 138
-226 345 -430 207 -206 227 -234 193 -272 -25 -29 -53 -37 -173 -54 -121 -17
-152 -26 -235 -67 -394 -195 -459 -563 -141 -804 72 -55 215 -123 306 -148 92
-24 140 -57 140 -96 0 -41 -31 -69 -138 -123 -115 -58 -193 -123 -271 -226
-104 -138 -175 -310 -218 -525 -24 -124 -25 -469 0 -601 39 -210 99 -348 262
-604 235 -366 304 -563 305 -862 0 -265 -69 -516 -205 -743 -142 -237 -441
-526 -644 -623 -160 -76 -301 -43 -301 70 0 45 19 85 93 196 61 91 105 211
133 362 23 121 26 515 6 630 -77 432 -280 831 -621 1220 -136 154 -235 251
-551 539 -609 555 -829 772 -879 869 -29 55 70 158 301 317 411 282 499 350
554 424 37 51 43 94 19 140 -39 76 -237 227 -584 446 -132 83 -191 129 -191
149 0 27 137 180 645 716 381 403 569 633 795 970 434 648 665 1270 671 1811
1 79 -7 184 -21 289 -36 277 -29 343 43 376 40 18 120 10 196 -18z m-1045 -18
c102 -49 217 -213 282 -402 38 -112 38 -115 38 -263 0 -133 -3 -160 -27 -237
-170 -555 -639 -1031 -1209 -1227 -233 -80 -443 -114 -703 -114 -346 0 -619
65 -940 222 -238 117 -398 232 -585 420 -139 140 -216 242 -289 382 -82 158
-96 212 -95 369 0 120 3 144 28 220 82 248 236 438 382 471 105 24 226 -23
519 -201 298 -181 540 -287 735 -321 98 -17 402 -17 500 0 113 20 211 55 355
126 157 77 217 116 450 298 341 265 444 313 559 257z m-3904 -186 c26 -25 16
-98 -46 -344 -56 -226 -59 -239 -56 -350 13 -673 374 -1471 1020 -2255 134
-163 529 -561 683 -688 134 -110 164 -143 179 -195 12 -46 12 -58 -1 -106 -23
-83 -116 -155 -388 -300 -178 -95 -261 -147 -303 -192 -39 -43 -71 -110 -75
-163 -9 -89 58 -158 408 -422 228 -172 319 -253 344 -305 16 -34 16 -39 0 -81
-49 -127 -218 -331 -765 -918 -276 -296 -372 -404 -493 -555 -494 -616 -708
-1122 -710 -1675 -1 -147 3 -182 46 -434 67 -388 64 -426 -29 -423 -249 10
-591 294 -767 639 -132 258 -189 560 -158 831 24 202 55 278 199 486 124 177
159 236 226 377 111 232 152 436 143 724 -7 237 -38 373 -127 561 -75 156
-173 278 -350 439 -89 80 -121 178 -81 241 17 27 34 37 121 63 340 106 534
277 534 471 0 154 -115 277 -412 440 -139 77 -166 99 -188 156 -15 39 -16 53
-6 91 17 62 37 86 117 140 96 65 238 211 306 313 170 255 238 521 209 815 -29
292 -116 499 -342 815 -60 85 -125 187 -143 225 -66 141 -107 345 -108 545 -1
149 19 235 88 375 151 304 540 628 810 675 58 9 94 5 115 -16z m5906 -2005
c96 -46 210 -213 251 -369 21 -80 23 -262 4 -340 -48 -193 -180 -309 -337
-297 -196 15 -316 185 -318 452 -1 107 12 175 51 269 67 161 201 304 287 306
11 0 39 -9 62 -21z m-7134 -150 c92 -47 185 -178 237 -335 27 -80 31 -106 31
-200 0 -177 -41 -303 -129 -398 -190 -204 -468 -72 -537 255 -22 105 -14 250
20 349 51 147 158 289 248 330 55 25 79 25 130 -1z m7141 -3597 c128 -69 201
-225 201 -427 -1 -175 -51 -318 -144 -413 -86 -87 -165 -109 -264 -72 -120 46
-225 191 -260 362 -20 95 -20 153 -1 241 20 94 53 162 109 224 109 120 239
151 359 85z m-7126 -217 c100 -46 185 -164 212 -293 16 -75 13 -226 -4 -301
-22 -92 -68 -182 -125 -244 -119 -130 -264 -127 -395 8 -198 203 -208 558 -20
750 101 104 221 132 332 80z m3152 -124 c11 -11 27 -54 38 -98 26 -114 26
-549 0 -673 -52 -243 -179 -497 -332 -667 -66 -73 -134 -110 -275 -148 -232
-64 -291 -87 -384 -149 -108 -72 -279 -237 -331 -321 -21 -33 -53 -83 -72
-112 -63 -100 -118 -108 -156 -25 -17 39 -22 72 -25 186 -5 168 7 250 59 413
67 205 193 431 352 628 119 147 457 462 817 761 182 152 273 223 283 224 4 0
16 -9 26 -19z m585 -47 c284 -144 863 -628 1093 -914 205 -255 348 -511 405
-725 33 -122 31 -334 -5 -468 -27 -103 -60 -173 -89 -191 -26 -16 -62 24 -92
101 -38 98 -130 228 -241 339 -195 196 -409 325 -743 449 -254 94 -427 499
-497 1160 -19 184 -19 214 5 253 27 44 70 43 164 -4z m2471 -3623 c1006 -22
1418 -52 1541 -112 144 -69 109 -246 -58 -293 -183 -53 -1060 -95 -2858 -138
-680 -16 -2502 -16 -3085 0 -1532 43 -2226 87 -2373 152 -82 37 -131 101 -118
155 4 14 25 39 48 55 141 103 627 165 1488 190 378 11 4823 4 5415 -9z"/>
</g>
</svg>
